<?xml version="1.0" encoding="UTF-8"?>
<svg width="371px" height="196px" viewBox="0 0 371 196" version="1.1" xmlns="http://www.w3.org/2000/svg" xmlns:xlink="http://www.w3.org/1999/xlink">
    <title>icon</title>
    <defs>
        <linearGradient x1="1.44424438%" y1="36.0435865%" x2="100%" y2="63.9564135%" id="linearGradient-1">
            <stop stop-color="#17EAD9" offset="0%"></stop>
            <stop stop-color="#6078EA" offset="100%"></stop>
        </linearGradient>
    </defs>
    <g id="Page-1" stroke="none" stroke-width="1" fill="none" fill-rule="evenodd">
        <g id="whalecloud-icon" transform="translate(-154.000000, -78.000000)" fill="url(#linearGradient-1)">
            <path d="M308.5,78 C356.824916,78 396,117.175084 396,165.5 C396,171.860767 395.321286,178.063012 394.032329,184.038264 C406.851666,188.737529 416,201.050411 416,215.5 C416,220.735104 414.79917,225.689738 412.657931,230.103483 C417.281906,223.578066 420,215.606456 420,207 C420,206.229504 419.978215,205.464095 419.935227,204.704358 C440.251197,202.269336 456,184.973833 456,164 C456,163.020924 455.965682,162.049864 455.898183,161.087956 C425.870524,157.39295 402.543906,132.054483 401.999957,101.158977 C403.97755,102.116241 406.59302,102.887047 409.919517,103.430544 C436.901938,107.839039 454.797544,117.470302 463.606336,132.324332 C475.256817,119.544537 493.561571,109.913275 518.520597,103.430544 C521.148793,102.747909 523.288181,101.93011 524.984064,100.999486 C524.537176,130.600771 503.178394,155.132105 475.026092,160.474636 C475.830729,163.494117 476.232185,166.992917 476.232185,170.965902 C476.232185,227.851232 430.117514,273.965902 373.232185,273.965902 C372.474056,273.965902 371.730187,273.954292 371.000576,273.931071 L371,274 L208,274 L208.000054,273.92241 C177.914334,272.362399 154,247.473945 154,217 C154,185.519769 179.519769,160 211,160 C214.453741,160 217.835739,160.307171 221.120163,160.895685 C223.513263,114.711177 261.719454,78 308.5,78 Z" id="icon"></path>
        </g>
    </g>
</svg>